<svg xmlns="http://www.w3.org/2000/svg" viewBox="0 0 566.8 129.66"><defs><style>.cls-1{fill:#f06023;}</style></defs><g id="Layer_2" data-name="Layer 2"><g id="Layer_1-2" data-name="Layer 1"><path class="cls-1" d="M79.31,4.07,48.87,96.76H30.31L0,4.07H21.07L39.56,65.93,58.11,4.07Z"/><path class="cls-1" d="M109.86,79.83a10.86,10.86,0,0,0,2.07.42q1,.09,2.07.09a17.23,17.23,0,0,0,5-.71,18,18,0,0,0,4.49-2,16.76,16.76,0,0,0,3.75-3.24,16.94,16.94,0,0,0,2.68-4.23l12.93,13a34.46,34.46,0,0,1-5.66,6.27,35.36,35.36,0,0,1-6.91,4.72,34.94,34.94,0,0,1-7.82,2.94,35.38,35.38,0,0,1-8.44,1A34.94,34.94,0,0,1,89,87.78a35.72,35.72,0,0,1-7.6-11.54,38,38,0,0,1-2.78-14.71,39.23,39.23,0,0,1,2.78-15A34.6,34.6,0,0,1,89,35a34.21,34.21,0,0,1,11.25-7.43A35.58,35.58,0,0,1,114,24.88a34.77,34.77,0,0,1,8.47,1,35.69,35.69,0,0,1,7.85,3,36.4,36.4,0,0,1,7,4.75A35.51,35.51,0,0,1,143,40Zm9-36.39a9.93,9.93,0,0,0-2.42-.59c-.8-.08-1.63-.13-2.49-.13a17.71,17.71,0,0,0-6.82,1.33,16.24,16.24,0,0,0-5.56,3.78,17.78,17.78,0,0,0-3.71,5.92,21,21,0,0,0-1.36,7.78c0,.65,0,1.38.1,2.2A24.24,24.24,0,0,0,97,66.22a24.52,24.52,0,0,0,.55,2.42,8.45,8.45,0,0,0,.84,2.07Z"/><path class="cls-1" d="M171.44,96.76H153.8V27.54h4.26l5.82,6.72a31.06,31.06,0,0,1,20.94-8.08,30,30,0,0,1,12,2.42,31.07,31.07,0,0,1,9.83,6.66,31.4,31.4,0,0,1,6.62,9.89,30.21,30.21,0,0,1,2.43,12.05V96.76H198V57.2a13,13,0,0,0-1-5.14,13.35,13.35,0,0,0-7-7.07,12.72,12.72,0,0,0-5.11-1,13.48,13.48,0,0,0-9.5,3.88,13.51,13.51,0,0,0-2.84,4.23,13,13,0,0,0-1,5.14Z"/><path class="cls-1" d="M264,96.76a30.17,30.17,0,0,1-12-2.42,31.31,31.31,0,0,1-16.51-16.52,30,30,0,0,1-2.43-12V45.25h-8.59V27.66H233V0h17.59V27.66h26.76V45.25H250.61V65.8a13.08,13.08,0,0,0,1,5.2,13.44,13.44,0,0,0,2.84,4.24,13.77,13.77,0,0,0,4.27,2.87A13,13,0,0,0,264,79.18h13.38V96.76Z"/><path class="cls-1" d="M418.75,88.68a48.12,48.12,0,0,1-4.55,3.65,33.75,33.75,0,0,1-5.08,3,31.33,31.33,0,0,1-5.46,2,22.5,22.5,0,0,1-5.72.74,31.85,31.85,0,0,1-12-2.26A29.21,29.21,0,0,1,369.4,79.21,35.48,35.48,0,0,1,367,65.8V27.54h17.58V65.8A17.15,17.15,0,0,0,385.63,72a13.77,13.77,0,0,0,2.87,4.62,12,12,0,0,0,4.24,2.84,13.78,13.78,0,0,0,5.2,1,11,11,0,0,0,5.14-1.26,14.25,14.25,0,0,0,4.23-3.33,16,16,0,0,0,2.85-4.68,14.59,14.59,0,0,0,1-5.4V27.54h17.65V96.76h-4.27Z"/><path class="cls-1" d="M461.91,96.76H444.27V27.54h4.26l5.82,8.2a31.21,31.21,0,0,1,20.94-8.08h15.58V45.25H475.29a13.41,13.41,0,0,0-9.5,3.87A13.19,13.19,0,0,0,463,53.39a13.35,13.35,0,0,0-1,5.24Z"/><path class="cls-1" d="M566.8,96.76h-4.26l-6.86-9.5a56.22,56.22,0,0,1-5.33,4.23,39.17,39.17,0,0,1-5.91,3.43,36.47,36.47,0,0,1-6.37,2.29,26.52,26.52,0,0,1-6.62.84,38.32,38.32,0,0,1-13.74-2.45,32.71,32.71,0,0,1-11.25-7.14A33.45,33.45,0,0,1,498.87,77a40.31,40.31,0,0,1-2.78-15.45,38.48,38.48,0,0,1,2.78-14.83,35.27,35.27,0,0,1,7.59-11.6,34.32,34.32,0,0,1,11.25-7.53,35.29,35.29,0,0,1,13.74-2.69,26.89,26.89,0,0,1,6.65.85,34.52,34.52,0,0,1,6.4,2.32,40.5,40.5,0,0,1,5.92,3.49,50.24,50.24,0,0,1,5.26,4.33l6.86-8.21h4.26ZM549,61.53a18.45,18.45,0,0,0-1.39-7,20.27,20.27,0,0,0-3.78-6,18.64,18.64,0,0,0-5.6-4.2,15.08,15.08,0,0,0-6.81-1.59A18.8,18.8,0,0,0,524.63,44a15.52,15.52,0,0,0-5.56,3.62,16.88,16.88,0,0,0-3.72,5.92,22.36,22.36,0,0,0-1.36,8,22.38,22.38,0,0,0,1.36,8,16.88,16.88,0,0,0,3.72,5.92,15.52,15.52,0,0,0,5.56,3.62,19,19,0,0,0,6.82,1.22,15.07,15.07,0,0,0,6.81-1.58,19,19,0,0,0,5.6-4.2,20.39,20.39,0,0,0,3.78-6A18.5,18.5,0,0,0,549,61.53Z"/><path class="cls-1" d="M324.6,20.81c1.47.21,3,.35,4.41.63a32.93,32.93,0,0,1,21.76,13.89,32,32,0,0,1,5.8,19.55,30.69,30.69,0,0,1-3,12.41,151.22,151.22,0,0,1-11.2,19.14,151.39,151.39,0,0,0-13.44,24.13,97.71,97.71,0,0,0-5.81,18.61c0,.09-.05.18-.14.49-.27-1.12-.5-2-.71-3a104.61,104.61,0,0,0-12.37-30.07c-3.77-6.3-7.89-12.4-11.75-18.66-2.5-4.06-5.08-8.11-6.76-12.59-4.1-11-2.64-21.28,4.11-30.76a32.22,32.22,0,0,1,20.35-13.08c1.33-.28,2.7-.39,4-.58.27,0,.54-.1.81-.16Zm14,32.67a15.76,15.76,0,1,0-16,15.66A15.76,15.76,0,0,0,338.62,53.48Z"/></g></g></svg>